<svg width="203" height="206" viewBox="0 0 203 206" fill="none" xmlns="http://www.w3.org/2000/svg">
<circle cx="98.7537" cy="104.355" r="96.2337" fill="#44535A"/>
<path opacity="0.8" fill-rule="evenodd" clip-rule="evenodd" d="M155.926 165.729L158.417 152.133L167.693 162.38L181.392 160.547L174.514 172.535L180.491 184.998L166.963 182.161L156.958 191.696L155.475 177.954L143.315 171.385L155.926 165.729Z" fill="#FF7D43"/>
<path opacity="0.8" fill-rule="evenodd" clip-rule="evenodd" d="M29.3853 67.0518L20.3992 76.9971L17.9713 63.8151L5.73594 58.3421L17.5224 51.9596L18.9466 38.6318L28.659 47.8692L41.7746 45.1051L35.9906 57.1966L42.6723 68.8161L29.3853 67.0518Z" fill="#5AB267"/>
<path opacity="0.8" fill-rule="evenodd" clip-rule="evenodd" d="M76.9946 205.461L70.8786 190.843L85.0194 191.798L76.9946 205.461Z" fill="#FABE2C"/>
<path opacity="0.8" fill-rule="evenodd" clip-rule="evenodd" d="M17.133 114.661L8.20462 100.59L23.0328 99.0761L17.133 114.661Z" fill="#E63950"/>
<path opacity="0.8" fill-rule="evenodd" clip-rule="evenodd" d="M49.4287 29.3441L42.5201 34.267L42.8149 25.7891L35.9981 20.7399L44.1523 18.4005L46.8478 10.357L51.5925 17.3891L60.0752 17.4672L54.8535 24.1527L57.4006 32.2444L49.4287 29.3441Z" fill="#FABE2C"/>
<path opacity="0.8" fill-rule="evenodd" clip-rule="evenodd" d="M115.305 182.432L119.967 175.755L122.431 183.517L130.222 185.888L123.601 190.629L123.754 198.771L117.198 193.94L109.502 196.601L112.071 188.873L107.162 182.376L115.305 182.432Z" fill="#E63950"/>
<path d="M149.94 137.833L101.552 89.4444L96.1819 98.257L90.3094 78.2023L68.8192 56.7122L56.6636 86.6157L49.893 82.8926L31.0397 133.181V133.185L31.5886 148.538L24.6568 150.2V150.204L10.2059 188.736C9.34228 191.039 10.037 193.33 11.5301 194.823C13.0193 196.316 15.303 197.018 17.6175 196.147L48.1044 184.717L49.2751 177.582L60.1487 180.199L83.8036 171.329V162.482L96.1819 166.689L119.119 158.087L121.529 151.225L131.075 153.601H131.079L147.89 147.298C151.817 145.824 152.891 140.784 149.94 137.833Z" fill="#FF7D43"/>
<path d="M147.891 147.298L131.079 153.6C131.079 153.6 131.079 153.6 131.075 153.6L121.53 151.224L119.119 158.087L96.1821 166.688L83.8038 162.482V171.329L60.1489 180.199L49.2753 177.581L48.1046 184.717L17.6177 196.147C15.3032 197.018 13.0195 196.316 11.5303 194.823L109.232 97.1246L149.94 137.833C152.892 140.784 151.817 145.824 147.891 147.298Z" fill="#E63950"/>
<path d="M131.075 153.6L119.119 158.087C106.914 145.478 98.101 129.849 93.5489 112.804C90.5896 101.723 89.4305 90.0393 90.3094 78.2023L101.552 89.4444C101.72 94.104 102.242 98.7175 103.106 103.247C106.764 122.449 116.509 140.136 131.075 153.6Z" fill="#F0F7FF"/>
<path d="M131.075 153.6L119.119 158.087C106.913 145.478 98.1009 129.849 93.5488 112.804L103.106 103.247C106.764 122.449 116.509 140.136 131.075 153.6Z" fill="#DFE7F4"/>
<path d="M96.1821 166.688L83.8039 171.329C75.1026 163.537 67.7985 154.356 62.1794 144.173C51.8668 125.496 47.573 103.96 49.8932 82.8925L59.0551 58.4623C60.5251 54.5512 65.557 53.4496 68.5201 56.4127L68.8195 56.7121C57.2139 82.8918 58.6037 111.735 70.7002 135.653C76.7838 147.697 85.4696 158.298 96.1821 166.688Z" fill="#F0F7FF"/>
<path d="M96.1819 166.688L83.8037 171.329C75.1025 163.537 67.7983 154.356 62.1792 144.173L70.7 135.653C76.7836 147.697 85.4695 158.298 96.1819 166.688Z" fill="#DFE7F4"/>
<path d="M60.1487 180.199L48.1044 184.717C43.6137 180.361 39.5221 175.597 35.8835 170.469C31.754 164.729 27.753 157.674 24.6567 150.204V150.2L31.0397 133.185C33.6689 143.694 38.0982 153.505 44.0781 162.275C48.5842 168.892 53.9769 174.914 60.1487 180.199Z" fill="#F0F7FF"/>
<path d="M60.1487 180.199L48.1044 184.717C43.6137 180.361 39.5222 175.597 35.8835 170.469L44.0781 162.275C48.5842 168.892 53.9769 174.914 60.1487 180.199Z" fill="#DFE7F4"/>
<path d="M98.8208 62.7507C96.5724 60.5023 96.5724 56.8571 98.8208 54.6087C120.481 32.9489 113.784 11.8583 113.714 11.6476C112.709 8.63111 114.339 5.37055 117.356 4.36493C120.371 3.35894 123.633 4.9898 124.638 8.00625C125.016 9.14159 133.599 36.1143 106.963 62.7503C104.715 64.9987 101.069 64.9991 98.8208 62.7507Z" fill="#8CD96B"/>
<path d="M143.602 107.532C145.851 109.78 149.496 109.78 151.744 107.532C173.404 85.8721 194.495 92.5687 194.706 92.6385C197.722 93.6437 200.983 92.0137 201.988 88.9972C202.994 85.9815 201.363 82.7202 198.347 81.7146C197.211 81.3365 170.239 72.7535 143.603 99.3899C141.354 101.638 141.354 105.284 143.602 107.532Z" fill="#5AB267"/>
<path d="M199.58 27.1275C194.505 32.2017 185.455 26.8128 182.288 28.16C180.941 31.3381 186.334 40.377 181.26 45.4473C176.186 50.5214 167.139 45.1326 163.969 46.4798C162.618 49.6578 168.014 58.693 162.94 63.7671C157.866 68.8412 148.811 63.4524 145.649 64.7996C144.298 67.9776 149.694 77.0128 144.62 82.0869C139.442 87.2647 130.288 81.6417 127.283 83.1386C125.782 84.6163 123.664 85.1076 121.756 84.5971C120.812 84.3476 119.917 83.8487 119.177 83.1079C116.927 80.8587 116.927 77.2124 119.177 74.9632C123.571 70.5684 129.724 71.2632 134.265 72.0884C134.411 72.1152 134.556 72.1421 134.698 72.169C134.672 72.027 134.645 71.8811 134.618 71.7353C133.796 67.1946 133.098 61.042 137.496 56.6434C141.891 52.2486 148.044 52.9434 152.584 53.7686C152.73 53.7954 152.876 53.8223 153.018 53.8492C152.991 53.7072 152.964 53.5613 152.938 53.4155C152.116 48.8749 151.418 42.7222 155.816 38.3236C160.211 33.9288 166.364 34.6236 170.904 35.4488C171.05 35.4756 171.196 35.5025 171.338 35.5294C171.311 35.3874 171.284 35.2415 171.257 35.0957C170.436 30.5551 169.737 24.4024 174.136 20.0038C178.531 15.6091 184.683 16.3038 189.224 17.129C189.37 17.1559 189.516 17.1827 189.658 17.2096C189.631 17.0676 189.604 16.9217 189.577 16.7759C188.756 12.2353 188.057 6.08261 192.456 1.68402C194.701 -0.561339 198.347 -0.561339 200.597 1.68402C201.337 2.42479 201.836 3.3191 202.086 4.26713C202.596 6.17089 202.113 8.28958 200.631 9.79416C199.15 12.7722 204.707 21.9993 199.58 27.1275Z" fill="#FF7D43"/>
<path d="M199.58 27.1275C194.506 32.2016 185.455 26.8128 182.289 28.16C180.941 31.338 186.334 40.377 181.26 45.4473C176.186 50.5214 167.139 45.1326 163.969 46.4798C162.618 49.6578 168.014 58.693 162.94 63.7671C157.866 68.8412 148.812 63.4524 145.649 64.7996C144.298 67.9776 149.694 77.0128 144.62 82.0869C139.443 87.2646 130.288 81.6416 127.283 83.1385C125.782 84.6163 123.664 85.1076 121.756 84.5971L134.265 72.0883C134.411 72.1152 134.557 72.1421 134.699 72.1689C134.672 72.0269 134.645 71.8811 134.618 71.7352L152.585 53.7685C152.73 53.7954 152.876 53.8223 153.018 53.8491C152.991 53.7071 152.965 53.5613 152.938 53.4154L170.904 35.4487C171.05 35.4756 171.196 35.5025 171.338 35.5293C171.311 35.3873 171.284 35.2415 171.258 35.0956L189.224 17.1289C189.37 17.1558 189.516 17.1827 189.658 17.2095C189.631 17.0675 189.604 16.9217 189.577 16.7758L202.086 4.26709C202.597 6.17084 202.113 8.28954 200.631 9.79412C199.15 12.7722 204.708 21.9993 199.58 27.1275Z" fill="#E63950"/>
<path d="M147.674 27.7977C150.853 27.7977 153.431 25.2201 153.431 22.0404C153.431 18.8607 150.853 16.2831 147.674 16.2831C144.494 16.2831 141.916 18.8607 141.916 22.0404C141.916 25.2201 144.494 27.7977 147.674 27.7977Z" fill="#FFE470"/>
<path d="M188.384 68.508C191.564 68.508 194.141 65.9304 194.141 62.7507C194.141 59.571 191.564 56.9934 188.384 56.9934C185.204 56.9934 182.627 59.571 182.627 62.7507C182.627 65.9304 185.204 68.508 188.384 68.508Z" fill="#FABE2C"/>
<path d="M180.241 125.502C183.421 125.502 185.999 122.925 185.999 119.745C185.999 116.565 183.421 113.988 180.241 113.988C177.062 113.988 174.484 116.565 174.484 119.745C174.484 122.925 177.062 125.502 180.241 125.502Z" fill="#FABE2C"/>
<path d="M90.6787 35.9397C93.8584 35.9397 96.436 33.3621 96.436 30.1824C96.436 27.0027 93.8584 24.425 90.6787 24.425C87.499 24.425 84.9214 27.0027 84.9214 30.1824C84.9214 33.3621 87.499 35.9397 90.6787 35.9397Z" fill="#FFE470"/>
</svg>
